<svg xmlns="http://www.w3.org/2000/svg" width="700" height="700" viewBox="0 0 700 700" version="1.1">
  <circle cx="350" cy="350" r="350" fill="#1a1a1a"/>
  <path d="M 200 200 L 200 500 L 250 500 L 250 380 L 300 380 C 350 380 380 350 380 300 C 380 250 350 220 300 220 L 250 220 L 250 200 L 200 200 Z M 250 270 L 290 270 C 310 270 330 280 330 300 C 330 320 310 330 290 330 L 250 330 L 250 270 Z" fill="#ffffff"/>
  <path d="M 400 200 L 400 500 L 450 500 L 450 380 L 460 380 L 510 500 L 570 500 L 510 370 C 540 350 550 330 550 300 C 550 250 520 220 470 220 L 450 220 L 450 200 L 400 200 Z M 450 270 L 470 270 C 490 270 500 280 500 300 C 500 320 490 330 470 330 L 450 330 L 450 270 Z" fill="#ffffff"/>
</svg>
